<svg id="icons" xmlns="http://www.w3.org/2000/svg" viewBox="0 0 128 128"><defs><style>.cls-1{fill:#92d5ed;}.cls-2{fill:#303442;opacity:0.08;}.cls-3{fill:none;stroke:#303442;stroke-linecap:round;stroke-linejoin:round;stroke-width:4px;}</style></defs><title>cloud</title><path class="cls-1" d="M96.53,56.79A21.82449,21.82449,0,0,1,92.26,100H35.74a21.80968,21.80968,0,0,1-3.59-43.31A22.80938,22.80938,0,0,1,74.98,41.43,15.218,15.218,0,0,1,96.53,56.79Z"/><path class="cls-2" d="M32.15,46.68994c-.0722-.27832-.13049-.56177-.19335-.84375q-.10327.45923-.18787.92493C31.89709,46.74731,32.02094,46.71143,32.15,46.68994Z"/><path class="cls-2" d="M92.26,90H35.74A21.75843,21.75843,0,0,1,14.5885,73.21655,21.757,21.757,0,0,0,35.74,100H92.26A21.76559,21.76559,0,0,0,113.4126,73.21167,21.7583,21.7583,0,0,1,92.26,90Z"/><path class="cls-3" d="M96.53,56.79A15.19772,15.19772,0,0,0,74.98,41.43,22.813,22.813,0,0,0,32.15,56.69,21.80968,21.80968,0,0,0,35.74,100H92.26a21.82449,21.82449,0,0,0,4.27-43.21Z"/></svg>