<?xml version="1.0" standalone="no"?>
<!DOCTYPE svg PUBLIC "-//W3C//DTD SVG 20010904//EN"
 "http://www.w3.org/TR/2001/REC-SVG-20010904/DTD/svg10.dtd">
<svg version="1.0" xmlns="http://www.w3.org/2000/svg"
 width="1700.000000pt" height="1700.000000pt" viewBox="0 0 1700.000000 1700.000000"
 preserveAspectRatio="xMidYMid meet">
<metadata>
Created by potrace 1.14, written by Peter Selinger 2001-2017
</metadata>
<g transform="translate(0.000000,1700.000000) scale(0.100000,-0.100000)"
fill="#000000" stroke="none">
<path d="M6685 14440 c-291 -25 -608 -86 -860 -167 -858 -275 -1576 -815
-2074 -1558 -220 -327 -426 -790 -521 -1165 -137 -547 -159 -1023 -74 -1611
l6 -46 -38 -7 c-76 -14 -392 -127 -524 -186 -438 -200 -780 -434 -1116 -766
-484 -478 -833 -1094 -989 -1749 -77 -319 -105 -564 -106 -895 -2 -952 371
-1883 1025 -2557 274 -283 527 -483 836 -660 452 -260 916 -411 1480 -480 137
-17 389 -18 4780 -18 4433 0 4642 1 4795 18 905 104 1689 490 2309 1138 243
254 410 483 579 794 218 402 349 807 418 1285 26 185 37 585 20 785 -55 662
-278 1289 -649 1825 -305 440 -744 844 -1202 1105 -224 128 -517 257 -742 327
l-108 33 0 50 c0 82 -20 272 -41 400 -125 747 -554 1401 -1184 1807 -252 162
-461 260 -713 332 -381 110 -851 135 -1227 66 -123 -23 -288 -64 -338 -85 -20
-8 -38 -15 -41 -15 -2 0 -21 30 -42 68 -53 96 -174 280 -247 376 -379 500
-830 879 -1367 1148 -423 212 -840 337 -1305 393 -156 19 -587 27 -740 15z"/>
</g>
</svg>
